<svg width="76" height="67" viewBox="0 0 76 67" fill="none" xmlns="http://www.w3.org/2000/svg">
<path d="M60.1667 8.375H46.93C45.6 5.13666 42.1167 2.79166 38 2.79166C33.8833 2.79166 30.4 5.13666 29.07 8.375H15.8333C12.35 8.375 9.5 10.8875 9.5 13.9583V53.0417C9.5 56.1125 12.35 58.625 15.8333 58.625H60.1667C63.65 58.625 66.5 56.1125 66.5 53.0417V13.9583C66.5 10.8875 63.65 8.375 60.1667 8.375ZM38 7.67708C39.2983 7.67708 40.375 8.62625 40.375 9.77083C40.375 10.9154 39.2983 11.8646 38 11.8646C36.7017 11.8646 35.625 10.9154 35.625 9.77083C35.625 8.62625 36.7017 7.67708 38 7.67708ZM28.8167 47.4583H22.1667V41.4842L41.04 24.8458L47.7533 30.7642L28.8167 47.4583ZM53.3583 25.8787L50.0017 28.8379L43.2883 22.9196L46.645 19.9604C47.2783 19.4021 48.26 19.4021 48.8933 19.9604L53.3583 23.8967C53.9917 24.455 53.9917 25.3204 53.3583 25.8787Z" fill="#264D75"/>
</svg>
