<svg width="28" height="28" viewBox="0 0 28 28" fill="none" xmlns="http://www.w3.org/2000/svg">
<path d="M22.1667 3.50001H17.29C16.8 2.14667 15.5167 1.16667 14 1.16667C12.4833 1.16667 11.2 2.14667 10.71 3.50001H5.83333C4.55 3.50001 3.5 4.55001 3.5 5.83334V22.1667C3.5 23.45 4.55 24.5 5.83333 24.5H22.1667C23.45 24.5 24.5 23.45 24.5 22.1667V5.83334C24.5 4.55001 23.45 3.50001 22.1667 3.50001ZM14 3.20834C14.4783 3.20834 14.875 3.60501 14.875 4.08334C14.875 4.56167 14.4783 4.95834 14 4.95834C13.5217 4.95834 13.125 4.56167 13.125 4.08334C13.125 3.60501 13.5217 3.20834 14 3.20834ZM10.6167 19.8333H8.16667V17.3367L15.12 10.3833L17.5933 12.8567L10.6167 19.8333ZM19.6583 10.815L18.4217 12.0517L15.9483 9.57834L17.185 8.34167C17.4183 8.10834 17.78 8.10834 18.0133 8.34167L19.6583 9.98667C19.8917 10.22 19.8917 10.5817 19.6583 10.815Z" fill="white"/>
</svg>
