<svg width="28" height="28" viewBox="0 0 28 28" fill="none" xmlns="http://www.w3.org/2000/svg">
<g clip-path="url(#clip0_2_1381)">
<path fill-rule="evenodd" clip-rule="evenodd" d="M14 25.375C15.9969 25.3779 17.9591 24.8527 19.6875 23.8525V20.125C19.6875 19.0807 19.2727 18.0792 18.5342 17.3408C17.7958 16.6023 16.7943 16.1875 15.75 16.1875H12.25C11.2057 16.1875 10.2042 16.6023 9.46577 17.3408C8.72734 18.0792 8.3125 19.0807 8.3125 20.125V23.8525C10.0409 24.8527 12.0031 25.3779 14 25.375ZM22.3125 20.125V21.7648C23.8257 20.1448 24.8326 18.118 25.2095 15.9334C25.5863 13.7489 25.3166 11.5019 24.4335 9.46859C23.5504 7.43529 22.0925 5.70432 20.2389 4.48848C18.3853 3.27263 16.2168 2.6249 14 2.6249C11.7832 2.6249 9.61473 3.27263 7.76113 4.48848C5.90752 5.70432 4.44957 7.43529 3.5665 9.46859C2.68343 11.5019 2.41372 13.7489 2.79054 15.9334C3.16735 18.118 4.17427 20.1448 5.6875 21.7648V20.125C5.68749 18.772 6.10542 17.4521 6.88415 16.3457C7.66288 15.2393 8.76438 14.4005 10.038 13.944C9.37718 13.1839 8.94894 12.2498 8.80437 11.253C8.65979 10.2563 8.80499 9.23896 9.22263 8.32245C9.64028 7.40593 10.3127 6.6289 11.1598 6.08402C12.0069 5.53915 12.9928 5.24943 14 5.24943C15.0072 5.24943 15.9931 5.53915 16.8402 6.08402C17.6873 6.6289 18.3597 7.40593 18.7774 8.32245C19.195 9.23896 19.3402 10.2563 19.1956 11.253C19.0511 12.2498 18.6228 13.1839 17.962 13.944C19.2356 14.4005 20.3371 15.2393 21.1158 16.3457C21.8946 17.4521 22.3125 18.772 22.3125 20.125ZM14 28C17.713 28 21.274 26.525 23.8995 23.8995C26.525 21.274 28 17.713 28 14C28 10.287 26.525 6.72601 23.8995 4.10051C21.274 1.475 17.713 0 14 0C10.287 0 6.72601 1.475 4.10051 4.10051C1.475 6.72601 0 10.287 0 14C0 17.713 1.475 21.274 4.10051 23.8995C6.72601 26.525 10.287 28 14 28ZM16.625 10.5C16.625 11.1962 16.3484 11.8639 15.8562 12.3562C15.3639 12.8484 14.6962 13.125 14 13.125C13.3038 13.125 12.6361 12.8484 12.1438 12.3562C11.6516 11.8639 11.375 11.1962 11.375 10.5C11.375 9.80381 11.6516 9.13613 12.1438 8.64384C12.6361 8.15156 13.3038 7.875 14 7.875C14.6962 7.875 15.3639 8.15156 15.8562 8.64384C16.3484 9.13613 16.625 9.80381 16.625 10.5Z" fill="white"/>
</g>
<defs>
<clipPath id="clip0_2_1381">
<rect width="28" height="28" fill="white"/>
</clipPath>
</defs>
</svg>
