<svg width="28" height="28" viewBox="0 0 28 28" fill="none" xmlns="http://www.w3.org/2000/svg">
<path d="M14.875 9.625H13.125V3.86094L10.0297 6.95625C9.86579 7.1216 9.64293 7.21506 9.41012 7.21609C9.17731 7.21712 8.95363 7.12562 8.78828 6.96172C8.62294 6.79782 8.52947 6.57496 8.52844 6.34215C8.52742 6.10934 8.61892 5.88566 8.78281 5.72031L13.3766 1.12656C13.5425 0.962255 13.7665 0.870079 14 0.870079C14.2335 0.870079 14.4575 0.962255 14.6234 1.12656L19.2172 5.72031C19.3808 5.88435 19.4727 6.10659 19.4727 6.33828C19.4727 6.56998 19.3808 6.79222 19.2172 6.95625C19.1358 7.03893 19.0387 7.10458 18.9317 7.14939C18.8247 7.19421 18.7098 7.21729 18.5938 7.21729C18.4777 7.21729 18.3628 7.19421 18.2558 7.14939C18.1488 7.10458 18.0517 7.03893 17.9703 6.95625L14.875 3.86094V9.625ZM21.875 9.625H14.875V14C14.875 14.2321 14.7828 14.4546 14.6187 14.6187C14.4546 14.7828 14.2321 14.875 14 14.875C13.7679 14.875 13.5454 14.7828 13.3813 14.6187C13.2172 14.4546 13.125 14.2321 13.125 14V9.625H6.125C5.66087 9.625 5.21575 9.80938 4.88756 10.1376C4.55937 10.4658 4.375 10.9109 4.375 11.375V22.75C4.375 23.2141 4.55937 23.6593 4.88756 23.9874C5.21575 24.3156 5.66087 24.5 6.125 24.5H21.875C22.3391 24.5 22.7842 24.3156 23.1124 23.9874C23.4406 23.6593 23.625 23.2141 23.625 22.75V11.375C23.625 10.9109 23.4406 10.4658 23.1124 10.1376C22.7842 9.80938 22.3391 9.625 21.875 9.625Z" fill="white"/>
</svg>
