<svg width="76" height="67" viewBox="0 0 76 67" fill="none" xmlns="http://www.w3.org/2000/svg">
<path d="M40.375 23.0312H35.625V9.23867L27.2234 16.6453C26.7786 17.041 26.1737 17.2646 25.5417 17.2671C24.9098 17.2695 24.3027 17.0506 23.8539 16.6584C23.4051 16.2662 23.1514 15.7329 23.1486 15.1759C23.1458 14.6188 23.3942 14.0835 23.8391 13.6879L36.3078 2.6957C36.7581 2.30253 37.3662 2.08197 38 2.08197C38.6338 2.08197 39.2419 2.30253 39.6922 2.6957L52.1609 13.6879C52.6051 14.0804 52.8545 14.6122 52.8545 15.1666C52.8545 15.721 52.6051 16.2528 52.1609 16.6453C51.9399 16.8431 51.6765 17.0002 51.386 17.1075C51.0955 17.2147 50.7837 17.2699 50.4688 17.2699C50.1538 17.2699 49.842 17.2147 49.5515 17.1075C49.261 17.0002 48.9976 16.8431 48.7766 16.6453L40.375 9.23867V23.0312ZM59.375 23.0312H40.375V33.5C40.375 34.0553 40.1248 34.5878 39.6794 34.9805C39.234 35.3732 38.6299 35.5937 38 35.5937C37.3701 35.5937 36.766 35.3732 36.3206 34.9805C35.8752 34.5878 35.625 34.0553 35.625 33.5V23.0312H16.625C15.3652 23.0312 14.157 23.4724 13.2662 24.2577C12.3754 25.043 11.875 26.1082 11.875 27.2187V54.4375C11.875 55.5481 12.3754 56.6132 13.2662 57.3985C14.157 58.1838 15.3652 58.625 16.625 58.625H59.375C60.6348 58.625 61.843 58.1838 62.7338 57.3985C63.6246 56.6132 64.125 55.5481 64.125 54.4375V27.2187C64.125 26.1082 63.6246 25.043 62.7338 24.2577C61.843 23.4724 60.6348 23.0312 59.375 23.0312Z" fill="#264D75"/>
</svg>
